<svg xmlns="http://www.w3.org/2000/svg" width="199.771" height="44.504" viewBox="0 0 199.771 44.504">
  <defs>
    <clipPath id="clip-path">
      <rect id="Rectangle_1" width="199.771" height="28.657" fill="none"/>
    </clipPath>
  </defs>
  <g id="Group_880" transform="translate(-186.41 -43.685)">
    <g id="Group_879" transform="translate(186.41 43.685)">
      <g id="Group_1" transform="translate(0 0)" clip-path="url(#clip-path)">
        <path id="Path_1" d="M440.374,466.51h6.812v-9.257l9.292-15.2H448.9l-5.065,8.908-5.031-8.908h-7.72l9.292,15.3v9.153Zm28.22.489c7.545,0,13.2-5.694,13.2-12.715v-.07c0-7.021-5.59-12.645-13.135-12.645s-13.205,5.694-13.205,12.716v.07c0,7.021,5.589,12.646,13.135,12.646m.07-6.113a6.349,6.349,0,0,1-6.253-6.6v-.07a6.232,6.232,0,0,1,6.183-6.532,6.355,6.355,0,0,1,6.288,6.6v.07a6.238,6.238,0,0,1-6.218,6.533m27.667,6.078c6.952,0,11.458-3.459,11.458-11.353V442.057h-6.882V455.82c0,3.424-1.781,5.03-4.506,5.03s-4.506-1.677-4.506-5.2V442.057h-6.882v13.729c0,7.65,4.367,11.178,11.319,11.178m15.475-.454h6.777V459.1h2.97l4.925,7.406H534.3l-5.834-8.523a7.735,7.735,0,0,0,5.031-7.511v-.07a7.581,7.581,0,0,0-2.166-5.694c-1.642-1.677-4.227-2.655-7.965-2.655H511.806V466.51Zm6.777-12.715v-5.869h4.437c2.271,0,3.668.978,3.668,2.9v.071c0,1.781-1.328,2.9-3.633,2.9ZM542.9,466.51h6.777V448h7.336v-5.938H535.56V448H542.9V466.51Zm17.082,0H579.82v-5.764H566.685v-3.878h11.737v-5.344H566.685v-3.7h12.96v-5.764H559.978V466.51Zm34.894.489A12.332,12.332,0,0,0,605.7,461.48l-5.1-3.633c-1.467,1.781-2.97,2.969-5.52,2.969-3.423,0-5.834-2.864-5.834-6.532v-.07c0-3.563,2.411-6.462,5.834-6.462a6.544,6.544,0,0,1,5.345,2.865l5.1-3.947a11.973,11.973,0,0,0-10.375-5.1,12.563,12.563,0,0,0-12.891,12.716v.07A12.418,12.418,0,0,0,594.872,467m13.728-.489h6.778v-9.292h8.7v9.292h6.777V442.057h-6.777v9.152h-8.7v-9.152H608.6V466.51Z" transform="translate(-431.082 -441.568)" fill="#105344"/>
      </g>
    </g>
    <path id="Path_634" d="M490.949,633.764v14.672l190.478-14.672Z" transform="translate(-295.246 -560.247)" fill="#ffc500"/>
  </g>
</svg>